<?xml version="1.0" standalone="no"?>
<!DOCTYPE svg PUBLIC "-//W3C//DTD SVG 20010904//EN"
 "http://www.w3.org/TR/2001/REC-SVG-20010904/DTD/svg10.dtd">
<svg version="1.0" xmlns="http://www.w3.org/2000/svg"
 width="500.000000pt" height="500.000000pt" viewBox="0 0 500.000000 500.000000"
 preserveAspectRatio="xMidYMid meet">

<g transform="translate(0.000000,500.000000) scale(0.100000,-0.100000)"
fill="#000000" stroke="none">
<path d="M0 2500 l0 -2500 2500 0 2500 0 0 2500 0 2500 -2500 0 -2500 0 0
-2500z m2558 890 c46 -27 103 -88 115 -123 2 -7 19 -4 53 10 66 28 112 35 153
23 135 -38 196 -199 130 -341 -40 -85 -212 -259 -242 -245 -22 11 -49 31 -77
56 -65 59 -100 89 -100 86 0 -5 -51 38 -97 81 -35 33 -95 49 -153 41 -16 -3
-30 -2 -30 1 0 3 -18 6 -40 6 l-39 1 6 -56 c5 -53 4 -56 -21 -68 -15 -6 -29
-19 -32 -27 -4 -8 -10 -13 -14 -10 -5 3 -15 -2 -24 -11 -9 -8 -21 -12 -27 -8
-7 4 -9 3 -6 -3 4 -6 0 -13 -8 -16 -18 -8 -78 60 -112 128 -71 137 -70 264 3
344 56 63 154 77 237 34 29 -15 32 -15 42 2 68 118 178 155 283 95z m550
-1267 l2 -213 -40 0 -40 0 0 216 0 215 38 -3 37 -3 3 -212z m450 135 c2 -43 6
-78 10 -78 4 0 16 7 26 15 11 8 37 15 59 15 81 0 141 -66 141 -155 0 -62 -24
-106 -74 -134 -47 -26 -85 -27 -133 -1 -31 17 -37 17 -37 5 0 -10 -11 -15 -35
-15 l-35 0 0 216 0 215 38 -3 37 -3 3 -77z m-2388 50 c31 -16 52 -36 68 -65
l23 -43 -42 0 c-32 0 -49 6 -69 25 -53 51 -146 39 -183 -24 -24 -41 -23 -136
2 -177 26 -42 76 -59 130 -44 42 11 81 50 81 81 0 16 -8 19 -50 19 -49 0 -50
1 -50 30 l0 31 93 -3 92 -3 3 -112 3 -113 -41 0 c-36 0 -40 2 -40 26 l0 26
-30 -26 c-83 -69 -232 -26 -276 80 -22 53 -20 154 4 201 23 44 61 82 100 99
46 21 132 17 182 -8z m1720 0 c31 -16 52 -36 68 -65 l23 -43 -42 0 c-32 0 -49
6 -69 25 -53 51 -146 39 -183 -24 -24 -41 -23 -136 2 -177 26 -42 76 -59 130
-44 42 11 81 50 81 81 0 16 -8 19 -50 19 -49 0 -50 1 -50 30 l0 31 93 -3 92
-3 3 -112 3 -113 -41 0 c-36 0 -40 2 -40 26 l0 26 -30 -26 c-39 -32 -92 -42
-148 -27 -95 25 -143 94 -143 205 0 94 44 169 119 202 46 21 132 17 182 -8z
m-1400 -137 c0 -36 -2 -39 -35 -45 -57 -11 -65 -26 -65 -127 l0 -89 -40 0 -40
0 0 145 0 145 35 0 c28 0 35 -4 35 -20 0 -18 2 -18 36 5 55 37 74 34 74 -14z
m237 19 c41 -25 63 -59 70 -110 l6 -40 -112 0 c-92 0 -111 -3 -111 -15 0 -43
82 -73 110 -40 8 9 30 15 57 15 l45 0 -19 -31 c-36 -63 -124 -86 -193 -51
-104 52 -109 210 -8 272 43 26 113 26 155 0z m330 0 c41 -25 63 -59 70 -110
l6 -40 -112 0 c-92 0 -111 -3 -111 -15 0 -43 82 -73 110 -40 8 9 30 15 57 15
l45 0 -19 -31 c-36 -63 -124 -86 -193 -51 -104 52 -109 210 -8 272 43 26 113
26 155 0z m332 6 c41 -22 53 -60 59 -178 l5 -108 -42 0 -41 0 0 88 c0 109 -12
136 -62 140 -55 5 -68 -21 -68 -135 l0 -93 -40 0 -40 0 0 145 0 145 35 0 c30
0 35 -3 35 -22 0 -13 4 -18 8 -12 29 42 100 56 151 30z m965 0 c76 -32 108
-138 65 -215 -25 -44 -85 -81 -133 -81 -40 0 -104 37 -126 73 -27 43 -26 121
0 165 40 65 120 89 194 58z m693 -6 c41 -25 63 -59 70 -110 l6 -40 -112 0
c-92 0 -111 -3 -111 -15 0 -43 82 -73 110 -40 8 9 30 15 57 15 l45 0 -19 -31
c-36 -63 -124 -86 -193 -51 -104 52 -109 210 -8 272 43 26 113 26 155 0z
m-2712 -505 c0 -36 -3 -40 -27 -43 -27 -3 -28 -2 -28 43 0 45 1 46 28 43 24
-3 27 -7 27 -43z m98 38 c-13 -2 -23 -11 -23 -19 0 -8 4 -13 8 -10 4 2 14 1
22 -5 12 -7 10 -9 -7 -9 -13 0 -23 -6 -23 -14 0 -8 10 -17 23 -19 16 -3 13 -5
-10 -6 -33 -1 -33 0 -33 44 0 44 0 45 33 44 23 -1 26 -3 10 -6z m125 0 c-13
-3 -18 -16 -20 -46 l-1 -42 -4 42 c-3 29 -9 43 -21 46 -9 3 1 5 23 5 22 0 32
-2 23 -5z m110 0 c-13 -3 -18 -16 -20 -46 l-1 -42 -4 42 c-3 29 -9 43 -21 46
-9 3 1 5 23 5 22 0 32 -2 23 -5z m99 0 c-29 -5 -33 -29 -3 -27 9 1 16 -2 16
-7 0 -5 -9 -9 -20 -9 -30 0 -24 -28 8 -33 25 -4 25 -4 -5 -6 -33 -1 -33 0 -33
44 0 44 0 45 33 44 31 -2 31 -2 4 -6z m129 -41 l0 -44 -18 24 -18 23 0 -22 c0
-13 -4 -23 -10 -23 -5 0 -10 21 -10 46 0 44 1 45 28 42 25 -3 27 -7 28 -46z
m167 -35 c18 -4 17 -5 -5 -6 -27 -1 -28 1 -26 47 l1 47 4 -42 c3 -33 8 -43 26
-46z m87 38 c0 -25 -4 -45 -10 -45 -5 0 -10 20 -10 45 0 25 5 45 10 45 6 0 10
-20 10 -45z m93 38 c-13 -2 -23 -11 -23 -19 0 -8 10 -15 23 -15 l22 -2 -22 -4
c-15 -3 -23 -12 -23 -24 0 -10 -4 -19 -10 -19 -5 0 -10 20 -10 45 0 44 0 45
33 44 23 -1 26 -3 10 -6z m109 0 c-22 -4 -26 -28 -4 -28 5 0 14 -3 18 -7 4 -5
-2 -8 -14 -8 -29 0 -28 -27 1 -33 16 -3 13 -5 -10 -6 -33 -1 -33 0 -33 44 0
44 0 45 33 44 24 -1 26 -3 9 -6z m186 0 c-34 -5 -36 -20 -5 -33 l22 -9 -22 0
c-14 -1 -23 -9 -26 -23 -2 -13 -5 -2 -6 25 -1 47 -1 47 32 46 30 -2 30 -2 5
-6z m150 -26 c4 -37 -15 -59 -47 -55 -17 2 -29 12 -35 30 -13 37 7 60 48 56
26 -2 32 -8 34 -31z m118 -14 c0 -45 -10 -57 -21 -23 -8 27 -23 25 -28 -2 -2
-13 -5 -1 -6 25 -1 47 0 48 27 45 25 -3 27 -7 28 -45z m167 40 c-13 -2 -23
-11 -23 -19 0 -8 10 -15 23 -15 l22 -2 -22 -4 c-15 -3 -23 -12 -23 -24 0 -10
-4 -19 -10 -19 -5 0 -10 20 -10 45 0 44 0 45 33 44 23 -1 26 -3 10 -6z m130
-35 c9 -23 14 -44 11 -47 -4 -3 -9 0 -11 7 -3 6 -13 12 -23 12 -10 0 -20 -6
-23 -12 -2 -7 -7 -10 -11 -7 -7 7 24 89 34 89 4 0 14 -19 23 -42z m123 -5 c0
-45 -10 -57 -21 -23 -8 27 -23 25 -28 -2 -2 -13 -5 -1 -6 25 -1 47 0 48 27 45
25 -3 27 -7 28 -45z m89 20 l18 -26 14 26 c20 40 33 33 33 -18 0 -25 -4 -45
-10 -45 -5 0 -10 12 -10 28 l-1 27 -13 -24 -13 -24 -17 24 -16 23 0 -27 c0
-15 -4 -27 -10 -27 -5 0 -10 20 -10 45 0 51 10 57 35 18z m158 20 c-13 -2 -23
-11 -23 -20 0 -9 6 -13 15 -10 8 4 17 2 20 -3 4 -6 -3 -10 -14 -10 -28 0 -27
-28 2 -33 16 -3 13 -5 -10 -6 -33 -1 -33 0 -33 44 0 44 0 45 33 44 23 -1 26
-3 10 -6z m132 -3 c3 -5 2 -18 -4 -28 -6 -11 -6 -24 0 -35 7 -11 7 -17 0 -17
-5 0 -13 9 -16 20 -3 11 -11 20 -16 20 -5 0 -9 -9 -9 -20 0 -11 -4 -20 -10
-20 -5 0 -10 20 -10 45 0 43 1 45 29 45 17 0 33 -4 36 -10z m111 -1 c4 -8 0
-9 -15 -4 -12 3 -21 2 -21 -4 0 -5 9 -13 21 -16 30 -10 22 -50 -10 -50 -13 0
-27 7 -29 15 -4 13 -3 13 11 2 9 -8 21 -11 28 -7 7 5 2 15 -17 30 -16 12 -24
27 -20 33 9 15 43 16 52 1z"/>
<path d="M3582 2117 c-28 -30 -30 -97 -4 -120 66 -60 163 8 131 92 -21 54 -89
69 -127 28z"/>
<path d="M1625 2140 c-24 -9 -50 -38 -43 -46 3 -3 36 -4 73 -2 l67 3 -18 22
c-23 26 -52 34 -79 23z"/>
<path d="M1955 2140 c-24 -9 -50 -38 -43 -46 3 -3 36 -4 73 -2 l67 3 -18 22
c-23 26 -52 34 -79 23z"/>
<path d="M3242 2117 c-45 -48 -12 -147 48 -147 33 0 70 44 70 83 0 74 -72 113
-118 64z"/>
<path d="M3945 2140 c-24 -9 -50 -38 -43 -46 3 -3 36 -4 73 -2 l67 3 -18 22
c-23 26 -52 34 -79 23z"/>
<path d="M1290 1710 c0 -5 7 -10 15 -10 8 0 15 5 15 10 0 6 -7 10 -15 10 -8 0
-15 -4 -15 -10z"/>
<path d="M1290 1664 c0 -9 7 -14 17 -12 25 5 28 28 4 28 -12 0 -21 -6 -21 -16z"/>
<path d="M1860 1704 c0 -9 5 -14 12 -12 18 6 21 28 4 28 -9 0 -16 -7 -16 -16z"/>
<path d="M2627 1714 c-13 -13 -7 -55 8 -60 21 -9 47 15 43 40 -3 21 -37 34
-51 20z"/>
<path d="M2760 1705 c0 -10 7 -15 18 -13 21 4 19 22 -2 26 -10 2 -16 -3 -16
-13z"/>
<path d="M3070 1690 c0 -5 5 -10 10 -10 6 0 10 5 10 10 0 6 -4 10 -10 10 -5 0
-10 -4 -10 -10z"/>
<path d="M3180 1705 c0 -10 7 -15 18 -13 21 4 19 22 -2 26 -10 2 -16 -3 -16
-13z"/>
<path d="M3560 1705 c0 -8 7 -15 15 -15 8 0 15 7 15 15 0 8 -7 15 -15 15 -8 0
-15 -7 -15 -15z"/>
</g>
</svg>
